<svg width="40" height="40" viewBox="0 0 50 50" fill="none" xmlns="http://www.w3.org/2000/svg">
<path d="M25 25C29.6023 25 33.3333 21.269 33.3333 16.6667C33.3333 12.0643 29.6023 8.33334 25 8.33334C20.3976 8.33334 16.6666 12.0643 16.6666 16.6667C16.6666 21.269 20.3976 25 25 25Z" fill="white"/>
<path d="M11.1206 36.0846C12.4979 30.2644 18.2745 27.0833 24.2555 27.0833H25.7446C31.7257 27.0833 37.5021 30.2644 38.8794 36.0846C39.1459 37.2106 39.3577 38.3892 39.4769 39.5867C39.5909 40.7317 38.6507 41.6667 37.5 41.6667H12.5C11.3495 41.6667 10.4092 40.7317 10.5232 39.5867C10.6423 38.3892 10.8541 37.2106 11.1206 36.0846Z" fill="white"/>
</svg>
