<svg width="40" height="40" viewBox="0 0 50 50" fill="none" xmlns="http://www.w3.org/2000/svg">
<g clip-path="url(#clip0_88_252)">
<path opacity="0.15" d="M37.5002 29.1667L43.7502 10.4167H9.97034L12.6489 29.1667H37.5002Z" fill="white"/>
<path d="M4.16663 6.25H9.37496L13.5416 35.4167H35.4166M35.4166 35.4167C33.1154 35.4167 31.25 37.2821 31.25 39.5833C31.25 41.8846 33.1154 43.75 35.4166 43.75C37.7179 43.75 39.5833 41.8846 39.5833 39.5833C39.5833 37.2821 37.7179 35.4167 35.4166 35.4167ZM12.6488 29.1667H37.5L43.75 10.4167H9.97019M22.9166 39.5833C22.9166 41.8846 21.0512 43.75 18.75 43.75C16.4488 43.75 14.5833 41.8846 14.5833 39.5833C14.5833 37.2821 16.4488 35.4167 18.75 35.4167C21.0512 35.4167 22.9166 37.2821 22.9166 39.5833Z" stroke="white" stroke-width="1.5" stroke-linecap="round" stroke-linejoin="round"/>
</g>
<defs>
<clipPath id="clip0_88_252">
<rect width="50" height="50" fill="white"/>
</clipPath>
</defs>
</svg>
